<?xml version="1.0" encoding="utf-8"?>
<!-- Creator Terje Rudi  -->
<svg version="1.1" id="Layer_1" xmlns="http://www.w3.org/2000/svg" xmlns:xlink="http://www.w3.org/1999/xlink" x="0px" y="0px"
	 viewBox="0 0 289.4 90.6" style="enable-background:new 0 0 289.4 90.6;" xml:space="preserve">
<style type="text/css">
	.st0{fill:#9A3A46;}
</style>
<g>
	<g>
		<path class="st0" d="M19.4,65.3l1.2,16.1c0.1,1.2-0.3,2.2-1,3.2c-1.1,1.4-2.6,2.1-4.8,2.3c-2.6,0.1-4.6-0.5-6.2-2.1
			c-1.2-1.2-1.9-2.5-2-4c-0.5-5.7-0.9-14.2-1.2-25.6C5,43.9,4.5,29.9,4.1,24.2c-0.1-1.4,0.5-2.7,1.6-3.8s2.8-1.7,4.7-1.9
			c2-0.1,3.6,0.3,5,1.2c1.4,1,2.1,2.1,2.2,3.6c0.1,2.3,0.3,10.9,0.4,14.7c0,4.6,0,7.6,0.1,9.3c2.2-1.8,10-9.5,23.5-22.9
			c1.4-1.4,3-2.1,5-2.2c1.9-0.1,3.5,0.3,5,1.2c1.4,1,2.2,2.1,2.3,3.6c0.1,1.6-3.4,6-10.5,13.1c-5.6,5.4-11.2,10.5-17,15.6
			c3.7,2.4,7.4,4.8,11.2,7.2c4.4,2.7,8.3,5,11.7,6.7c1.7,0.9,3.6,1.5,5.5,1.8c3.5,0.7,5.4,2.2,5.5,4.7c0.1,1.1-0.3,2.2-1.1,3.2
			c-1.1,1.4-2.6,2.3-4.8,2.4c-4.7,0.3-10.7-1.7-18.5-6C33.5,74.5,28.1,71,19.4,65.3z"/>
		<path class="st0" d="M74.5,77.3c-0.1,4.9-2.4,7.2-6.8,7.2c-2-0.1-3.5-0.6-4.8-1.6c-1.3-1-1.8-2.2-1.8-3.8l1.4-53
			c0.1-1.5,0.8-2.7,2.1-3.6c1.3-0.8,3-1.3,4.8-1.2c1.9,0.1,3.5,0.5,4.7,1.5c1.2,1,1.8,2.1,1.7,3.7L74.5,77.3z"/>
		<path class="st0" d="M106.4,84.5c-7.7,0.4-14.1-0.8-19.2-3.5c-5.6-3-8.5-7.4-8.9-13.2c-0.4-6.5,1.5-12.1,5.5-16.7
			c4.5-5.2,10.8-7.9,18.9-8.3c5.6-0.2,10.3,0.2,14.1,1.5c5,1.6,7.6,4.5,7.7,8.4c0.1,2.8-1.7,5.4-5.6,7.8c-1.8,1.1-5.3,2.7-10.6,4.9
			l-16,6.5c1.6,1.2,3.6,2.2,5.8,2.7c2.2,0.6,4.8,0.8,7.6,0.6c4.4-0.2,7.9-1.1,10.9-2.6c2.7-1.4,4.7-2.1,6.3-2.1
			c3.4-0.1,5.1,1,5.2,3.6c0.1,2.9-2.4,5.4-7.7,7.5C116.3,83.3,111.5,84.3,106.4,84.5z M103.4,52.1c-3,0.1-5.5,1.1-7.6,2.7
			c-2.1,1.6-3.6,4.2-4.8,7.3c3.5-1.4,7.1-2.9,10.6-4.3c4.2-1.8,7.7-3.3,10.1-4.8C109.7,52.3,106.9,51.9,103.4,52.1z"/>
		<path class="st0" d="M168.6,43.8c0.9-8.7,1.8-14.7,2.6-18c0.8-3,2.9-4.4,6.6-4.2c1.9,0.1,3.4,0.7,4.5,1.7c1.1,1.1,1.6,2.2,1.5,3.7
			c-0.3,3.8-0.9,9.3-2.1,16.6c-1.1,7.4-1.8,13-2.1,16.6c-0.5,9.2-0.5,15.3,0,18.4c0.1,0.4,0.1,0.8,0.1,1.2c-0.1,1.4-0.8,2.5-2.1,3.4
			c-1.4,0.8-2.9,1.3-4.5,1.1c-2.4-0.2-4.1-1-5.2-2.7c-2.3,0.9-4.5,1.5-6.9,1.8c-2.4,0.2-4.8,0.2-7.3,0.2c-7.2-0.4-13.1-2.5-17.7-6.3
			c-4.7-4-6.8-8.8-6.5-14.6c0.4-6.8,3.1-12.3,8.3-16.4c5.1-4,11.6-5.8,19.5-5.4c2.4,0.2,4.6,0.4,6.4,0.9
			C165.6,42.2,167.2,42.9,168.6,43.8z M166.8,55.7c-1-1.7-2.3-2.9-3.9-3.8c-1.7-0.9-3.7-1.4-6.1-1.5c-4.8-0.2-8.4,0.7-11,2.8
			s-3.9,5.3-4.1,9.7c-0.2,2.8,1,5.2,3.5,7.2c2.5,2.1,5.4,3.2,8.9,3.4c2.5,0.2,4.4-0.1,5.7-0.4c0.9-0.3,2.5-1,4.6-2.2
			c0.6-0.4,1.1-0.7,1.7-1.1C166.1,68.6,166.3,63.9,166.8,55.7z"/>
		<path class="st0" d="M216.4,82c-7.5,1.4-14,1.2-19.5-0.8c-6.1-2.2-9.7-6.1-11-11.8c-1.5-6.4-0.5-12.1,2.7-17.3
			c3.6-5.7,9.3-9.4,17.3-10.9c5.5-1.1,10.2-1.2,14.2-0.5c5.2,0.9,8.3,3.4,9.1,7.3c0.6,2.8-0.7,5.6-4.2,8.4c-1.6,1.3-4.8,3.4-9.7,6.3
			l-14.8,8.6c1.8,1.1,3.9,1.7,6.2,1.9c2.3,0.2,4.9,0.1,7.6-0.4c4.2-0.8,7.7-2.2,10.3-4.1c2.4-1.7,4.3-2.7,5.9-3
			c3.3-0.7,5.3,0.3,5.8,2.9c0.6,2.9-1.4,5.7-6.3,8.5C225.8,79.5,221.4,81,216.4,82z M207.9,50.4c-3,0.6-5.2,1.8-7,3.8
			c-1.8,1.9-2.9,4.6-3.5,7.9c3.2-1.9,6.6-3.8,9.8-5.7c3.9-2.3,7-4.4,9.2-6.2C214.1,49.7,211.2,49.7,207.9,50.4z"/>
		<path class="st0" d="M254.7,74.2c0.7,4.8-1.3,7.5-5.7,8c-1.9,0.2-3.6-0.1-5-0.9s-2.2-2-2.3-3.6L234.8,25c-0.2-1.4,0.4-2.8,1.5-3.9
			c1.2-1,2.7-1.6,4.6-1.9c1.9-0.2,3.5,0,4.9,0.8c1.3,0.8,2.1,1.9,2.3,3.4L254.7,74.2z"/>
		<path class="st0" d="M275.1,63.3c-0.1,1.4-0.3,3.8-0.4,7c-0.2,3.2-0.2,5.6-0.4,7c-0.1,1.4-0.9,2.6-2.1,3.5c-1.4,0.9-3,1.3-4.9,1.1
			c-1.9-0.2-3.5-0.7-4.7-1.7c-1.2-1.1-1.7-2.3-1.6-3.8c0.1-1.4,0.3-3.8,0.4-7c0.2-3.2,0.2-5.6,0.4-7c0.2-2.2,0.5-5.1,1.2-8.5
			c0.6-3.4,1-6.2,1.2-8.5c0.1-1.4,0.9-2.6,2.1-3.5c1.4-0.9,3-1.3,4.9-1.1c1.9,0.2,3.5,0.7,4.7,1.7c1.2,1.1,1.7,2.3,1.6,3.8
			c-0.2,2.2-0.5,5.1-1.2,8.5S275.2,61.1,275.1,63.3z"/>
	</g>
	<path class="st0" d="M279.7,37.9c0,0,0.1-4,0.7-5.8c0.6-1.9,4.2-10.6,4.6-12.7c0.4-2,1.2-7.4-0.3-10.3c-2-3.8-5.7-5.1-10.2-5.3
		c-4.5-0.1-6.5,2.6-6.6,5.6s-0.5,4.6-0.5,4.6s-2.9-2.4-4.2-2c-1.2,0.4-2.9,0.7-1.6,2.6s4,14,4,14s0.5,2.5,0.2,4.6
		c-0.4,2.2-1.6,3.3,0.7,3.9C268.7,37.8,274.2,39.6,279.7,37.9z"/>
</g>
</svg>
