<?xml version="1.0" encoding="utf-8"?>
<!-- Logo by Terje Rudi -->
<svg version="1.1" id="Layer_1" xmlns="http://www.w3.org/2000/svg" xmlns:xlink="http://www.w3.org/1999/xlink" x="0px" y="0px"
	 viewBox="0 0 289.4 90.6" style="enable-background:new 0 0 289.4 90.6;" xml:space="preserve">
<style type="text/css">
	.st0{fill:#9A3A46;}
</style>
<g>
	<g>
		<path class="st0" d="M19.5,65.9l1.3,16.1c0.1,1.2-0.3,2.2-0.9,3.2c-1.1,1.4-2.6,2.1-4.8,2.3c-2.6,0.1-4.6-0.5-6.2-2.1
			c-1.2-1.2-1.9-2.5-2-4c-0.5-5.6-0.9-14.2-1.3-25.6C5,44.6,4.5,30.6,4,25c-0.1-1.4,0.4-2.7,1.6-3.8c1.2-1.1,2.7-1.8,4.7-1.9
			s3.6,0.3,5,1.2c1.4,1,2.1,2.1,2.2,3.6c0.1,2.3,0.4,10.9,0.4,14.7c0,4.6,0,7.6,0.2,9.3c2.1-1.8,9.9-9.5,23.4-23
			c1.4-1.4,3-2.1,5-2.2c1.9-0.1,3.5,0.3,5,1.2c1.4,1,2.2,2.1,2.3,3.6c0.1,1.6-3.4,6-10.5,13.1c-5.6,5.4-11.1,10.6-17,15.7
			c3.7,2.4,7.4,4.7,11.2,7.2c4.4,2.7,8.3,5,11.7,6.6c1.7,0.9,3.6,1.5,5.5,1.8c3.5,0.7,5.4,2.2,5.5,4.7c0.1,1.1-0.3,2.2-1,3.3
			c-1.1,1.5-2.6,2.3-4.8,2.4c-4.6,0.3-10.7-1.6-18.5-5.9C33.6,75.1,28.2,71.6,19.5,65.9z"/>
		<path class="st0" d="M74.7,77.6c-0.1,4.9-2.4,7.2-6.8,7.2c-2-0.1-3.5-0.6-4.8-1.5c-1.3-1-1.8-2.2-1.8-3.7l1.1-53
			c0.1-1.5,0.7-2.7,2.1-3.6c1.3-0.8,2.9-1.3,4.8-1.2c1.9,0.1,3.5,0.5,4.7,1.4c1.2,1,1.8,2.1,1.7,3.7L74.7,77.6z"/>
		<path class="st0" d="M106.6,84.7c-7.7,0.4-14.1-0.7-19.2-3.4c-5.6-3-8.5-7.3-8.9-13.1c-0.4-6.5,1.5-12.1,5.5-16.7
			c4.5-5.2,10.8-8,18.9-8.4c5.6-0.3,10.3,0.2,14.1,1.5c5,1.6,7.6,4.5,7.8,8.4c0.1,2.8-1.7,5.4-5.5,7.8c-1.8,1.1-5.3,2.7-10.6,4.9
			l-15.9,6.6c1.6,1.2,3.6,2.2,5.8,2.7c2.2,0.6,4.8,0.7,7.6,0.6c4.4-0.3,7.9-1.1,10.8-2.7c2.7-1.4,4.7-2.1,6.3-2.2
			c3.4-0.1,5.1,1,5.2,3.6c0.1,2.9-2.4,5.4-7.7,7.5C116.5,83.4,111.7,84.5,106.6,84.7z M103.5,52.3c-3,0.1-5.5,1.1-7.6,2.7
			c-2.1,1.7-3.6,4.2-4.7,7.4c3.5-1.4,7.1-2.9,10.6-4.3c4.2-1.8,7.7-3.4,10.1-4.8C109.7,52.4,106.9,52.1,103.5,52.3z"/>
		<path class="st0" d="M168.6,43.6c0.8-8.7,1.7-14.7,2.5-18c0.7-3,2.9-4.4,6.6-4.2c1.9,0.1,3.4,0.7,4.5,1.6c1.1,1.1,1.6,2.2,1.5,3.7
			c-0.2,3.8-0.8,9.3-2,16.6c-1.1,7.4-1.8,13-2,16.6c-0.4,9.2-0.4,15.3,0.1,18.4c0.1,0.4,0.1,0.8,0.1,1.2c-0.1,1.4-0.7,2.5-2.1,3.4
			c-1.4,0.8-2.8,1.3-4.5,1.2c-2.4-0.1-4.1-1-5.2-2.7c-2.3,0.9-4.5,1.5-6.9,1.8c-2.4,0.2-4.8,0.3-7.3,0.2c-7.2-0.3-13.1-2.4-17.7-6.2
			c-4.7-4-6.9-8.8-6.6-14.5c0.4-6.8,3.1-12.4,8.2-16.4c5.1-4,11.6-5.9,19.5-5.5c2.4,0.1,4.6,0.4,6.5,0.9
			C165.6,42.1,167.2,42.8,168.6,43.6z M166.9,55.6c-1-1.7-2.3-2.9-3.9-3.8c-1.7-0.9-3.7-1.4-6.1-1.4c-4.8-0.2-8.4,0.8-10.9,2.9
			c-2.5,2.1-3.9,5.3-4.1,9.7c-0.2,2.8,1,5.2,3.5,7.2c2.5,2.1,5.4,3.1,8.9,3.4c2.5,0.1,4.4-0.1,5.7-0.5c0.9-0.3,2.5-1,4.6-2.2
			c0.6-0.4,1.1-0.7,1.7-1.1C166.2,68.5,166.4,63.8,166.9,55.6z"/>
		<path class="st0" d="M216.6,81.6c-7.5,1.5-14,1.2-19.5-0.7c-6.1-2.1-9.7-6-11.1-11.8c-1.5-6.4-0.6-12.1,2.6-17.3
			c3.6-5.7,9.2-9.4,17.2-11c5.5-1.1,10.2-1.3,14.2-0.6c5.2,0.9,8.3,3.4,9.1,7.2c0.6,2.8-0.7,5.6-4.1,8.4c-1.6,1.3-4.8,3.4-9.7,6.4
			L200.5,71c1.8,1,3.9,1.6,6.2,1.9c2.3,0.2,4.9,0.1,7.6-0.5c4.2-0.8,7.7-2.2,10.2-4.1c2.3-1.7,4.3-2.8,5.9-3.1
			c3.3-0.7,5.3,0.3,5.8,2.9c0.6,2.9-1.4,5.7-6.3,8.5C226,79,221.6,80.6,216.6,81.6z M207.9,50.1c-3,0.6-5.2,1.8-7,3.8
			c-1.8,1.9-2.9,4.6-3.4,8c3.2-1.9,6.6-3.8,9.8-5.7c3.9-2.3,7-4.4,9.2-6.3C214.1,49.3,211.3,49.4,207.9,50.1z"/>
		<path class="st0" d="M254.9,73.6c0.7,4.8-1.3,7.5-5.7,8c-1.9,0.2-3.6-0.1-5-0.9c-1.4-0.8-2.2-2-2.3-3.6l-7.1-52.6
			c-0.2-1.4,0.3-2.8,1.5-3.9c1.2-1,2.6-1.7,4.6-1.9c1.9-0.2,3.5,0,4.9,0.8c1.3,0.8,2.1,1.9,2.3,3.4L254.9,73.6z"/>
		<path class="st0" d="M275.2,62.7c-0.1,1.4-0.2,3.8-0.4,7c-0.1,3.2-0.2,5.6-0.4,7c-0.1,1.4-0.8,2.6-2.1,3.5
			c-1.4,0.9-2.9,1.3-4.9,1.2c-1.9-0.1-3.5-0.7-4.7-1.7s-1.7-2.3-1.6-3.7s0.2-3.8,0.4-7c0.1-3.2,0.2-5.6,0.4-7
			c0.2-2.2,0.5-5.1,1.1-8.6c0.5-3.4,1-6.2,1.1-8.6c0.1-1.4,0.8-2.6,2.1-3.5c1.4-0.9,2.9-1.3,4.9-1.2c1.9,0.1,3.5,0.7,4.7,1.7
			c1.2,1.1,1.7,2.3,1.6,3.7c-0.2,2.2-0.5,5.1-1.1,8.6C275.7,57.5,275.3,60.4,275.2,62.7z"/>
	</g>
	<path class="st0" d="M279.7,37.2c0,0,0-4,0.7-5.8c0.6-1.9,4.2-10.7,4.5-12.7c0.4-2,1.2-7.4-0.4-10.3c-2-3.8-5.7-5.1-10.2-5.2
		c-4.5-0.1-6.5,2.6-6.5,5.6c0,3-0.5,4.6-0.5,4.6s-2.9-2.4-4.2-2c-1.2,0.4-2.9,0.7-1.5,2.6s4.1,13.9,4.1,13.9s0.5,2.5,0.2,4.6
		c-0.4,2.2-1.6,3.4,0.8,3.9C268.7,37.2,274.2,39,279.7,37.2z"/>
</g>
</svg>
