<?xml version="1.0" encoding="utf-8"?>
<!-- Generator: Adobe Illustrator 27.6.1, SVG Export Plug-In . SVG Version: 6.00 Build 0)  -->
<svg version="1.1" id="Layer_1" xmlns="http://www.w3.org/2000/svg" xmlns:xlink="http://www.w3.org/1999/xlink" x="0px" y="0px"
	 viewBox="0 0 289.4 90.6" style="enable-background:new 0 0 289.4 90.6;" xml:space="preserve">
<style type="text/css">
	.st0{fill:#9A3A46;}
</style>
<g>
	<g>
		<path class="st0" d="M17.5,65.8l1,18c0.1,1.3-0.3,2.4-1,3.5c-1.1,1.5-2.7,2.3-4.9,2.5c-2.6,0.1-4.6-0.6-6.2-2.4
			c-1.2-1.4-1.9-2.8-2-4.5c-0.4-6.3-0.7-15.8-0.9-28.5C3.2,41.8,2.9,26.2,2.5,19.9c-0.1-1.6,0.5-3,1.7-4.2c1.2-1.2,2.8-1.9,4.8-2
			c2-0.1,3.6,0.4,5,1.4c1.4,1.1,2.1,2.4,2.2,4c0.1,2.6,0.2,12.1,0.2,16.4c-0.1,5.1-0.1,8.5,0,10.4c2.2-2,10.2-10.4,24-25.2
			c1.4-1.5,3.1-2.3,5.1-2.4c1.9-0.1,3.5,0.4,5,1.4c1.4,1.1,2.2,2.4,2.3,4c0.1,1.8-3.5,6.6-10.8,14.4C36.3,44,30.6,49.7,24.6,55.3
			c3.7,2.7,7.4,5.4,11.2,8.2c4.4,3.1,8.3,5.7,11.7,7.6c1.7,1,3.6,1.7,5.5,2.1c3.5,0.8,5.4,2.5,5.5,5.3c0.1,1.2-0.3,2.4-1.1,3.6
			c-1.1,1.6-2.7,2.5-4.9,2.6c-4.7,0.3-10.8-2-18.6-6.9C31.6,76.3,26.2,72.3,17.5,65.8z"/>
		<path class="st0" d="M73,79.9c-0.2,5.4-2.5,8-7,7.9c-2-0.1-3.5-0.7-4.8-1.8s-1.8-2.5-1.8-4.2l2-59c0.1-1.7,0.8-3,2.2-4
			c1.3-0.9,3-1.4,4.9-1.3c1.9,0.1,3.5,0.6,4.7,1.7c1.2,1.1,1.8,2.4,1.7,4.1L73,79.9z"/>
		<path class="st0" d="M105.1,88.4c-7.8,0.3-14.2-1.1-19.3-4.1c-5.6-3.4-8.5-8.3-8.8-14.8c-0.3-7.2,1.7-13.4,5.8-18.5
			c4.6-5.7,11-8.7,19.2-9c5.7-0.2,10.4,0.4,14.2,1.9c5,1.9,7.6,5.1,7.7,9.5c0.1,3.1-1.8,6-5.7,8.6c-1.8,1.2-5.4,2.9-10.8,5.3
			l-16.2,7c1.6,1.4,3.6,2.5,5.8,3.1c2.2,0.7,4.8,0.9,7.7,0.8c4.4-0.2,8-1.1,11-2.8c2.7-1.5,4.8-2.3,6.4-2.3c3.4-0.1,5.1,1.2,5.2,4.1
			c0.1,3.2-2.5,6-7.9,8.2C115.1,87.1,110.3,88.2,105.1,88.4z M102.5,52.2c-3,0.1-5.6,1.1-7.7,2.9c-2.1,1.8-3.7,4.6-4.9,8.1
			c3.6-1.5,7.2-3.1,10.8-4.6c4.3-1.9,7.8-3.6,10.3-5.2C108.8,52.5,106,52.1,102.5,52.2z"/>
		<path class="st0" d="M168.4,43.8c1-9.7,2-16.3,2.8-20c0.8-3.3,3-4.9,6.7-4.6c1.9,0.1,3.4,0.8,4.5,1.9c1.1,1.2,1.6,2.5,1.5,4.1
			c-0.3,4.2-1,10.3-2.3,18.5c-1.2,8.2-2,14.4-2.3,18.5c-0.6,10.2-0.7,17-0.2,20.5c0.1,0.5,0.1,0.9,0.1,1.3c-0.1,1.6-0.8,2.8-2.2,3.8
			c-1.4,0.9-2.9,1.4-4.6,1.2c-2.4-0.2-4.1-1.2-5.2-3.1c-2.3,1-4.6,1.6-7,1.9c-2.4,0.2-4.9,0.2-7.4,0.1c-7.3-0.5-13.2-2.9-17.8-7.2
			c-4.7-4.5-6.8-9.9-6.4-16.3c0.5-7.6,3.3-13.7,8.6-18.1c5.2-4.4,11.8-6.3,19.8-5.8c2.4,0.2,4.6,0.5,6.5,1.1
			C165.4,42,167,42.8,168.4,43.8z M166.5,57.1c-1-1.9-2.3-3.3-3.9-4.3c-1.7-1-3.7-1.6-6.1-1.7c-4.8-0.3-8.5,0.7-11.1,3
			c-2.6,2.3-4,5.8-4.3,10.7c-0.2,3.1,0.9,5.8,3.4,8.1c2.5,2.4,5.4,3.6,8.9,3.9c2.5,0.2,4.4,0,5.8-0.4c0.9-0.3,2.5-1.1,4.7-2.4
			c0.6-0.4,1.1-0.8,1.7-1.2C165.6,71.4,165.9,66.2,166.5,57.1z"/>
		<path class="st0" d="M216.2,87c-7.6,1.5-14.2,1.1-19.7-1.1c-6.1-2.5-9.7-6.9-11-13.3c-1.4-7.1-0.4-13.5,2.9-19.2
			c3.7-6.3,9.5-10.3,17.6-11.9c5.6-1.1,10.3-1.2,14.3-0.4c5.2,1.1,8.3,3.9,9.1,8.2c0.6,3.1-0.8,6.2-4.3,9.3
			c-1.6,1.4-4.9,3.7-9.9,6.9l-15,9.4c1.8,1.2,3.9,1.9,6.2,2.2c2.3,0.3,4.9,0.2,7.7-0.4c4.3-0.8,7.8-2.3,10.4-4.4
			c2.4-1.9,4.4-3,6-3.3c3.3-0.7,5.3,0.4,5.8,3.3c0.6,3.2-1.5,6.3-6.5,9.4C225.8,84.3,221.3,86,216.2,87z M208,51.7
			c-3,0.6-5.3,1.9-7.1,4.1c-1.8,2.1-3,5.1-3.6,8.8c3.3-2.1,6.7-4.1,10-6.2c4-2.5,7.1-4.8,9.4-6.8C214.3,51,211.4,51,208,51.7z"/>
		<path class="st0" d="M255,78.8c0.6,5.4-1.4,8.3-5.9,8.8c-1.9,0.2-3.6-0.2-5-1.1c-1.4-0.9-2.2-2.3-2.3-4l-6.3-58.7
			c-0.2-1.6,0.4-3.1,1.6-4.3c1.2-1.1,2.7-1.8,4.7-2c1.9-0.2,3.5,0.1,4.9,1c1.3,0.9,2.1,2.1,2.3,3.8L255,78.8z"/>
		<path class="st0" d="M275.7,67c-0.1,1.6-0.3,4.2-0.5,7.8c-0.2,3.6-0.3,6.2-0.5,7.8c-0.1,1.6-0.9,2.9-2.2,3.9c-1.4,1-3,1.4-5,1.2
			c-1.9-0.2-3.5-0.8-4.7-2c-1.2-1.2-1.7-2.6-1.6-4.2c0.1-1.6,0.3-4.2,0.5-7.8c0.2-3.6,0.3-6.2,0.5-7.8c0.2-2.5,0.6-5.7,1.3-9.5
			c0.6-3.8,1.1-6.9,1.3-9.5c0.1-1.6,0.9-2.9,2.2-3.9c1.4-1,3-1.4,5-1.2c1.9,0.2,3.5,0.8,4.7,2c1.2,1.2,1.7,2.6,1.6,4.2
			c-0.2,2.5-0.6,5.7-1.3,9.5C276.3,61.3,275.9,64.5,275.7,67z"/>
	</g>
	<path class="st0" d="M280.7,38.7c0,0,0.1-4.4,0.8-6.5c0.6-2.1,4.4-11.8,4.8-14.1c0.4-2.2,1.3-8.2-0.2-11.5c-2-4.3-5.7-5.8-10.2-6
		c-4.5-0.2-6.6,2.8-6.7,6.1c-0.1,3.3-0.6,5.1-0.6,5.1s-2.9-2.7-4.2-2.3c-1.2,0.4-2.9,0.7-1.6,2.9s3.9,15.6,3.9,15.6s0.5,2.8,0.1,5.1
		c-0.4,2.4-1.7,3.7,0.7,4.4C269.6,38.5,275.1,40.6,280.7,38.7z"/>
</g>
</svg>
